<?xml version="1.0" encoding="UTF-8" standalone="no"?>
<svg
   xmlns:dc="http://purl.org/dc/elements/1.1/"
   xmlns:cc="http://creativecommons.org/ns#"
   xmlns:rdf="http://www.w3.org/1999/02/22-rdf-syntax-ns#"
   xmlns:svg="http://www.w3.org/2000/svg"
   xmlns="http://www.w3.org/2000/svg"
   style="enable-background:new"
   id="svg8"
   version="1.1"
   viewBox="0 0 39.6875 9.2604169"
   height="35"
   width="150">
  <defs
     id="defs2">
    <filter
       id="filter4560"
       style="color-interpolation-filters:sRGB">
      <feBlend
         id="feBlend4562"
         in2="BackgroundImage"
         mode="lighten" />
    </filter>
  </defs>
  <metadata
     id="metadata5">
    <rdf:RDF>
      <cc:Work
         rdf:about="">
        <dc:format>image/svg+xml</dc:format>
        <dc:type
           rdf:resource="http://purl.org/dc/dcmitype/StillImage" />
        <dc:title></dc:title>
      </cc:Work>
    </rdf:RDF>
  </metadata>
  <g
     transform="translate(0,-287.73956)"
     id="layer1">
    <g
       transform="matrix(0.1961644,0,0,0.1961644,-1.9987262,276.29537)"
       id="text3701"
       style="font-style:normal;font-variant:normal;font-weight:normal;font-stretch:normal;font-size:21.82164955px;line-height:1.25;font-family:mesibo;-inkscape-font-specification:mesibo;letter-spacing:0px;word-spacing:0px;fill:#00868b;fill-opacity:1;stroke:none;stroke-width:0.54554123;filter:url(#filter4560)"
       aria-label="mesibo">
      <path
         id="path4508"
         style="font-size:52.37195969px;fill:#00868b;fill-opacity:1;stroke-width:0.54554123"
         d="m 20.913111,75.504842 c 0,0 0,1.406474 0,1.406474 1.227468,-1.278612 2.710658,-2.327075 4.423999,-3.145386 1.71334,-0.79274 3.401109,-1.201896 5.063304,-1.201896 1.508763,0 2.889664,0.383584 4.142704,1.125179 1.227468,0.741595 2.224786,1.917918 2.966381,3.477825 1.508762,-1.355329 3.222103,-2.480508 5.114449,-3.324392 1.866774,-0.843884 3.682403,-1.25304 5.395744,-1.25304 2.327074,0 4.193848,0.843884 5.651466,2.531653 1.457618,1.687768 2.173641,4.321709 2.173641,7.927396 0,0 0,10.970493 0,10.970493 0,1.099607 0.434728,1.687769 1.304185,1.764485 0.179005,0.02557 0.409156,0.02557 0.716023,0.05115 0.281294,0.02557 0.511445,0.02557 0.69045,0.05114 0.179006,0.02557 0.383584,0.02557 0.639306,0.05115 0.255723,0.02557 0.460301,0.05114 0.613734,0.07672 0.153434,0.02557 0.33244,0.07672 0.511445,0.102289 0.179006,0.05114 0.332439,0.102289 0.460301,0.153433 0.102289,0.05114 0.204578,0.102289 0.306867,0.179006 0.102289,0.07672 0.179005,0.153433 0.23015,0.23015 0.02557,0.102289 0.05114,0.204578 0.05114,0.332439 0,1.994635 -0.281294,3.24768 -0.843884,3.75912 -1.994635,-0.12786 -3.707975,-0.20458 -5.165593,-0.20458 -0.843885,0 -1.687769,0.0256 -2.582797,0.10229 -0.895029,0.0767 -1.508763,0.10229 -1.841202,0.10229 -0.588162,0 -0.895029,-0.66488 -0.895029,-1.969063 0,0 0,-15.292203 0,-15.292203 0,-2.224785 -0.358011,-3.835837 -1.074034,-4.884299 -0.716023,-1.02289 -1.662196,-1.534334 -2.812947,-1.534334 -1.150751,0 -2.429363,0.332439 -3.835837,1.022889 -1.406473,0.690451 -2.710658,1.58548 -3.938126,2.685086 0.07672,0.767168 0.127861,1.508763 0.127861,2.250358 0,0 0,10.970493 0,10.970493 0,1.099607 0.434729,1.687769 1.278613,1.764485 0.179005,0.02557 0.409156,0.02557 0.69045,0.05115 0.281295,0.02557 0.485873,0.02557 0.664879,0.05114 0.153433,0.02557 0.358011,0.02557 0.588161,0.05115 0.230151,0.02557 0.434729,0.05114 0.56259,0.07672 0.127861,0.02557 0.306867,0.07672 0.485873,0.102289 0.179005,0.05114 0.306866,0.102289 0.409155,0.153433 0.102289,0.05114 0.204578,0.102289 0.306867,0.179006 0.07672,0.07672 0.153434,0.153433 0.204578,0.23015 0.02557,0.102289 0.05114,0.204578 0.05114,0.332439 0,1.994635 -0.281295,3.247681 -0.843884,3.759121 -1.636624,-0.12786 -3.145386,-0.20458 -4.500716,-0.20458 -0.843884,0 -1.790057,0.0256 -2.812947,0.10229 -1.022889,0.0767 -1.687768,0.10229 -2.020207,0.10229 -0.588162,0 -0.869456,-0.66488 -0.869456,-1.969064 0,0 0,-15.292203 0,-15.292203 0,-2.224785 -0.358012,-3.835837 -1.074035,-4.884299 -0.716023,-1.02289 -1.662196,-1.534334 -2.812947,-1.534334 -1.150751,0 -2.429363,0.358011 -3.810264,1.074034 -1.380902,0.716023 -2.659514,1.636624 -3.86141,2.761802 0,0 0,13.220852 0,13.220852 0,0.23015 0.02557,0.434728 0.05115,0.588161 0.02557,0.179006 0.102289,0.332439 0.204578,0.511445 0.102289,0.179006 0.281295,0.332439 0.537017,0.409156 0.23015,0.102289 0.537017,0.153434 0.920601,0.153434 0.639306,0 1.201895,0.102289 1.662196,0.306867 0.4603,0.204577 0.690451,0.511444 0.690451,0.9206 0,1.994636 -0.281295,3.247679 -0.843885,3.733549 -1.662196,-0.12786 -3.733547,-0.20458 -6.188483,-0.20458 -2.633941,0 -4.603004,0.0767 -5.881617,0.20458 -0.562589,-0.51144 -0.843884,-1.764486 -0.843884,-3.733549 0,-0.409156 0.23015,-0.716023 0.690451,-0.9206 0.4603,-0.204578 1.02289,-0.306867 1.662196,-0.306867 0.588162,0 0.997317,-0.127862 1.227468,-0.358012 0.204578,-0.23015 0.306867,-0.664878 0.306867,-1.25304 0,0 0,-13.732296 0,-13.732296 0,-0.895029 -0.255723,-1.534335 -0.767168,-1.917918 -0.537017,-0.383584 -1.534335,-0.588162 -3.017525,-0.664879 -0.23015,-0.05114 -0.358011,-0.153433 -0.409156,-0.332439 -0.07672,-0.179006 -0.102289,-0.537017 -0.102289,-1.099607 0,-0.869456 0.102289,-1.636623 0.281295,-2.301502 0.179006,-0.664878 0.383584,-1.048462 0.562589,-1.150751 1.304185,0.179006 2.582797,0.281295 3.810265,0.281295 0.767167,0 1.585479,-0.05115 2.429363,-0.153434 0.843885,-0.07672 1.304185,-0.127861 1.355329,-0.127861 0.588162,0 0.997318,0.153434 1.176324,0.434728 0.179006,0.306867 0.255722,0.997318 0.255722,2.071352 z" />
      <path
         id="path4510"
         style="font-size:52.37195969px;fill:#00868b;fill-opacity:1;stroke-width:0.54554123"
         d="m 89.344442,85.452446 c 0,0.79274 -0.204578,1.380901 -0.588161,1.790057 -0.409156,0.434728 -1.176324,0.639306 -2.27593,0.639306 0,0 -17.64485,0 -17.64485,0 0.07672,1.559907 0.332439,2.889664 0.818312,4.014843 0.485873,1.125179 1.099606,1.994635 1.892346,2.633941 0.79274,0.639306 1.636624,1.125179 2.582797,1.406474 0.946173,0.306867 1.969063,0.4603 3.068669,0.4603 1.559907,0 3.145387,-0.281294 4.756438,-0.818312 1.611052,-0.537017 3.094242,-1.304184 4.398426,-2.301502 0.971746,1.150751 1.457618,2.27593 1.457618,3.375537 0,0.741595 -0.485872,1.457618 -1.457618,2.148068 -0.971745,0.716023 -2.275929,1.304182 -3.938125,1.764482 -1.662196,0.4603 -3.375537,0.69045 -5.165594,0.69045 -1.457618,0 -2.864092,-0.15343 -4.168276,-0.43472 -1.329757,-0.2813 -2.633942,-0.79274 -3.886982,-1.534339 -1.278612,-0.716023 -2.378218,-1.636624 -3.298819,-2.73623 -0.920601,-1.099607 -1.662196,-2.531653 -2.224786,-4.270565 -0.562589,-1.738913 -0.843884,-3.707976 -0.843884,-5.907189 0,-2.148069 0.409156,-4.117132 1.227468,-5.907189 0.818312,-1.790057 1.892346,-3.247675 3.247675,-4.398426 1.355329,-1.125179 2.864092,-1.994635 4.526288,-2.608369 1.662196,-0.613734 3.349964,-0.920601 5.114449,-0.920601 1.304184,0 2.531652,0.153433 3.733548,0.485872 1.201895,0.33244 2.327074,0.818312 3.375536,1.508763 1.048462,0.690451 1.969063,1.534335 2.761803,2.531652 0.792739,0.997318 1.406473,2.224786 1.866774,3.656831 0.434728,1.432046 0.664878,3.017525 0.664878,4.730866 z m -5.165593,-1.534335 c -0.153434,-2.378219 -0.895029,-4.168276 -2.224786,-5.421316 -1.355329,-1.227468 -2.940808,-1.841202 -4.807582,-1.841202 -1.969063,0 -3.75912,0.664879 -5.370172,1.969063 -1.611051,1.329757 -2.557224,3.094242 -2.787375,5.293455 0,0 15.189915,0 15.189915,0 z" />
      <path
         id="path4512"
         style="font-size:52.37195969px;fill:#00868b;fill-opacity:1;stroke-width:0.54554123"
         d="m 114.48196,93.788998 c 0,1.713341 -0.51144,3.145386 -1.55991,4.270565 -1.04846,1.150751 -2.45493,1.969067 -4.16827,2.454937 -1.71334,0.48587 -3.75912,0.74159 -6.11177,0.74159 -3.605686,0 -6.444205,-0.51144 -8.464413,-1.559903 -2.045779,-1.048462 -3.068669,-2.633941 -3.068669,-4.78201 0,-2.429363 1.48319,-3.656831 4.475143,-3.656831 0.485873,0 0.79274,0.102289 0.946173,0.281294 0.153434,0.179006 0.23015,0.537018 0.23015,1.074035 0,0 0,3.477825 0,3.477825 0.639306,0.332439 1.559907,0.613734 2.812947,0.79274 1.227469,0.179006 2.480509,0.281295 3.733549,0.281295 1.50876,0 2.73623,-0.306867 3.73355,-0.946173 0.97174,-0.613734 1.45762,-1.457619 1.45762,-2.557225 0,-0.767167 -0.25573,-1.457618 -0.7416,-2.071352 -0.48587,-0.588162 -1.15075,-1.074034 -1.94349,-1.457618 -0.79274,-0.383584 -1.71334,-0.767167 -2.73623,-1.150751 -1.04846,-0.383584 -2.09693,-0.716023 -3.145387,-1.048462 -1.074035,-0.332439 -2.122497,-0.741595 -3.145386,-1.227468 -1.048463,-0.485873 -1.969063,-1.02289 -2.761803,-1.611051 -0.79274,-0.588162 -1.457618,-1.329757 -1.943491,-2.27593 -0.485872,-0.946173 -0.741595,-1.994636 -0.741595,-3.170959 0,-1.508762 0.56259,-2.838519 1.687768,-3.938126 1.125179,-1.099606 2.50608,-1.917918 4.142704,-2.403791 1.611052,-0.485873 3.34996,-0.741595 5.21674,-0.741595 7.6461,0 11.45636,2.224785 11.45636,6.648784 0,0.281295 -0.0511,0.562589 -0.12786,0.869456 -0.10229,0.306867 -0.28129,0.664879 -0.53701,1.074035 -0.2813,0.409156 -0.71603,0.741595 -1.32976,0.997317 -0.63931,0.281295 -1.40647,0.409156 -2.3015,0.409156 -0.17901,0 -0.30687,-0.02557 -0.40916,-0.05114 -0.12786,-0.02557 -0.20458,-0.07672 -0.25572,-0.127862 -0.0767,-0.02557 -0.12786,-0.102289 -0.15343,-0.23015 -0.0512,-0.102289 -0.0767,-0.179005 -0.0767,-0.23015 -0.0256,-0.05114 -0.0256,-0.179006 -0.0511,-0.358011 -0.0256,-0.179006 -0.0511,-0.281295 -0.0511,-0.358012 0,0 -0.35801,-3.580114 -0.35801,-3.580114 -0.23015,-0.230151 -0.97175,-0.511445 -2.19921,-0.79274 -1.25305,-0.281295 -2.30151,-0.434728 -3.19654,-0.434728 -1.73891,0 -3.017521,0.332439 -3.861405,0.971745 -0.843884,0.639306 -1.278612,1.457618 -1.278612,2.454936 0,0.716023 0.306867,1.355329 0.946173,1.892346 0.613734,0.537017 1.406474,0.997318 2.403794,1.380901 0.99731,0.383584 2.07135,0.767168 3.27324,1.150751 1.2019,0.383584 2.37822,0.818312 3.58012,1.329757 1.20189,0.537017 2.27593,1.125179 3.27325,1.790057 0.99731,0.664879 1.79005,1.534335 2.42936,2.633942 0.61373,1.099606 0.9206,2.378219 0.9206,3.784692 z" />
      <path
         id="path4514"
         style="font-size:52.37195969px;fill:#00868b;fill-opacity:1;stroke-width:0.54554123"
         d="m 122.20478,68.728197 c -0.40916,0 -0.81832,-0.05114 -1.25304,-0.127861 -0.43473,-0.07672 -0.89503,-0.204578 -1.3809,-0.409156 -0.51145,-0.204578 -0.92061,-0.537017 -1.22747,-0.971745 -0.33244,-0.434729 -0.48588,-0.971746 -0.48588,-1.58548 0,-2.096924 1.40648,-3.145386 4.245,-3.145386 0.79274,0 1.48319,0.102289 2.04578,0.306867 0.53701,0.204578 0.94617,0.485873 1.22747,0.818312 0.25572,0.332439 0.43472,0.664878 0.53701,0.997318 0.10229,0.332439 0.15344,0.664878 0.15344,1.048462 0,0.767167 -0.23015,1.406473 -0.71603,1.892346 -0.48587,0.485872 -0.97174,0.818312 -1.50876,0.946173 -0.53702,0.153433 -1.09961,0.23015 -1.63662,0.23015 z m 4.21942,6.776645 c 0,0 0,18.642168 0,18.642168 0,0.255722 0.0256,0.4603 0.0511,0.588161 0.0256,0.153434 0.0767,0.332439 0.17901,0.511445 0.0767,0.179006 0.25572,0.332439 0.48587,0.409156 0.23015,0.102289 0.53702,0.153434 0.9206,0.153434 0.63931,0 1.2019,0.102289 1.6622,0.306867 0.4603,0.204577 0.69045,0.511444 0.69045,0.9206 0,1.994636 -0.2813,3.247677 -0.84389,3.733547 -1.53433,-0.12786 -3.40111,-0.20458 -5.62589,-0.20458 -2.3015,0 -4.44957,0.0767 -6.44421,0.20458 -0.56259,-0.51144 -0.84388,-1.764484 -0.84388,-3.733547 0,-0.409156 0.23015,-0.716023 0.69045,-0.9206 0.4603,-0.204578 1.02289,-0.306867 1.6622,-0.306867 0.66487,0 1.0996,-0.153434 1.30418,-0.434729 0.20458,-0.281294 0.30687,-0.664878 0.30687,-1.176323 0,0 0,-13.732296 0,-13.732296 0,-0.895029 -0.25573,-1.534335 -0.76717,-1.917918 -0.53702,-0.383584 -1.53433,-0.588162 -3.01753,-0.664879 -0.23015,-0.05114 -0.35801,-0.153433 -0.40915,-0.332439 -0.0767,-0.179006 -0.10229,-0.537017 -0.10229,-1.099607 0,-0.869456 0.10229,-1.636623 0.28129,-2.301502 0.17901,-0.664878 0.38359,-1.048462 0.56259,-1.150751 1.30419,0.179006 2.5828,0.281295 3.81027,0.281295 0.81831,0 1.68777,-0.05115 2.5828,-0.153434 0.89502,-0.07672 1.3809,-0.127861 1.43204,-0.127861 0.58816,0 0.99732,0.153434 1.17632,0.434728 0.17901,0.306867 0.25573,0.997318 0.25573,2.071352 z" />
      <path
         id="path4516"
         style="font-size:52.37195969px;fill:#00868b;fill-opacity:1;stroke-width:0.54554123"
         d="m 142.02327,85.120007 c 0,0 0,6.674356 0,6.674356 0.53702,1.432046 1.58548,2.633941 3.11982,3.605687 1.53433,0.997317 3.27324,1.48319 5.21673,1.48319 2.07136,0 3.83584,-0.895029 5.3446,-2.659514 1.50877,-1.764485 2.25036,-4.193848 2.25036,-7.339234 0,-3.145387 -0.79274,-5.57475 -2.40379,-7.339235 -1.61105,-1.764485 -3.5034,-2.633941 -5.70261,-2.633941 -0.94617,0 -1.89235,0.179006 -2.81295,0.511445 -0.9206,0.358011 -1.76448,0.869456 -2.50608,1.534334 -0.74159,0.664879 -1.35533,1.534335 -1.81563,2.582797 -0.4603,1.074035 -0.69045,2.27593 -0.69045,3.580115 z m 0,-19.025751 c 0,0 0,10.740343 0,10.740343 0.84389,-1.355329 2.04578,-2.429363 3.60569,-3.170958 1.55991,-0.741596 3.14539,-1.099607 4.75644,-1.099607 1.71334,0 3.37553,0.306867 4.98658,0.920601 1.61106,0.613734 3.0431,1.48319 4.34729,2.633941 1.27861,1.150751 2.3015,2.659514 3.09424,4.526288 0.76717,1.866774 1.15075,3.938126 1.15075,6.239628 0,2.301502 -0.38358,4.372854 -1.15075,6.239628 -0.76717,1.866774 -1.79006,3.401108 -3.06867,4.55186 -1.30419,1.150751 -2.73623,2.045779 -4.32171,2.65951 -1.58548,0.61374 -3.24768,0.9206 -4.96102,0.9206 -3.83583,0 -7.26251,-1.432042 -10.28004,-4.296133 0,0 -2.55722,2.557224 -2.55722,2.557224 -0.92061,0.818309 -1.81563,1.227469 -2.65952,1.227469 -0.69045,0 -1.25304,-0.23015 -1.68777,-0.66488 -0.43472,-0.434728 -0.66487,-0.997317 -0.66487,-1.662195 0,-1.02289 0.48587,-1.969063 1.43204,-2.864092 0,0 2.17364,-1.994635 2.17364,-1.994635 0,0 0,-23.91005 0,-23.91005 0,-0.895029 -0.25572,-1.534335 -0.76717,-1.917918 -0.53701,-0.383584 -1.53433,-0.588162 -3.01752,-0.664879 -0.23015,-0.05114 -0.35801,-0.153433 -0.40916,-0.332439 -0.0767,-0.179006 -0.10229,-0.537017 -0.10229,-1.099607 0,-0.869456 0.10229,-1.636623 0.2813,-2.301502 0.17901,-0.664878 0.38358,-1.048462 0.56259,-1.150751 1.40647,0.179006 2.7618,0.281295 4.06599,0.281295 0.76716,0 1.58548,-0.05114 2.42936,-0.153434 0.84388,-0.07672 1.30418,-0.127861 1.35533,-0.127861 0.58816,0 0.99732,0.153434 1.17632,0.434728 0.17901,0.306867 0.25572,0.997318 0.25572,2.071352 0,0.127861 0,0.332439 0,0.639306 -0.0256,0.33244 -0.0256,0.588162 -0.0256,0.767168 z" />
      <path
         id="path4518"
         style="font-size:52.37195969px;fill:#00868b;fill-opacity:1;stroke-width:0.54554123"
         d="m 167.0585,93.12412 c 0,0 -0.20458,-0.460301 -0.61373,-1.380902 -0.40916,-0.946173 -0.61374,-2.557224 -0.61374,-4.858726 0,-2.301502 0.40916,-4.372854 1.22747,-6.239628 0.81831,-1.866774 1.91792,-3.375537 3.27325,-4.526288 1.35533,-1.150751 2.88966,-2.020207 4.57743,-2.633941 1.68777,-0.613734 3.45225,-0.920601 5.29345,-0.920601 1.81563,0 3.58012,0.306867 5.26789,0.920601 1.68776,0.613734 3.2221,1.48319 4.57743,2.633941 1.35533,1.150751 2.42936,2.659514 3.24767,4.526288 0.81832,1.866774 1.22747,3.938126 1.22747,6.239628 0,2.301502 -0.40915,4.372854 -1.22747,6.239628 -0.81831,1.866774 -1.89234,3.401108 -3.24767,4.55186 -1.35533,1.150751 -2.88967,2.045779 -4.57743,2.65951 -1.68777,0.61374 -3.45226,0.9206 -5.26789,0.9206 -1.8412,0 -3.60568,-0.30686 -5.29345,-0.9206 -1.68777,-0.613731 -3.2221,-1.508759 -4.57743,-2.65951 -1.35533,-1.150752 -2.45494,-2.685086 -3.27325,-4.55186 z m 7.23695,-13.578863 c 0,0 -0.40916,0.434728 -1.22747,1.304185 -0.84389,0.895028 -1.25304,2.889663 -1.25304,6.03505 0,3.145386 0.81831,5.574749 2.48051,7.339234 1.66219,1.764485 3.60568,2.659514 5.85604,2.659514 1.07403,0 2.09692,-0.204578 3.09424,-0.639306 0.99732,-0.434728 1.89235,-1.048462 2.68509,-1.866774 0.79274,-0.79274 1.40647,-1.841202 1.89234,-3.145386 0.48588,-1.304185 0.71603,-2.736231 0.71603,-4.347282 0,-1.611052 -0.23015,-3.043098 -0.71603,-4.347282 -0.48587,-1.304185 -1.0996,-2.352647 -1.89234,-3.145386 -0.79274,-0.79274 -1.68777,-1.406474 -2.68509,-1.841202 -0.99732,-0.434728 -2.02021,-0.639306 -3.09424,-0.639306 -2.25036,0 -4.19385,0.869456 -5.85604,2.633941 z" />
    </g>
  </g>
</svg>
